<svg width="28" height="33" viewBox="0 0 28 33" fill="none" xmlns="http://www.w3.org/2000/svg">
<path fill-rule="evenodd" clip-rule="evenodd" d="M2.27344 8.21086C2.27344 4.81737 5.0244 2.06641 8.41788 2.06641H19.5823C22.9758 2.06641 25.7267 4.81737 25.7267 8.21085V24.7868C25.7267 28.1803 22.9758 30.9313 19.5823 30.9313H8.41788C5.0244 30.9313 2.27344 28.1803 2.27344 24.7868V8.21086ZM6.375 7.09375H18.1417V9.1419H6.375V7.09375ZM6.375 11.2H11.5453V13.2482H6.375V11.2ZM17.7428 25.677L22.081 21.3388L20.6668 19.9246L17.0357 23.5557L15.4549 21.9748L14.0407 23.389L16.3286 25.677L17.0357 26.3841L17.7428 25.677Z" fill="#BEBEB6" fill-opacity="0.2"/>
<path d="M14.74 22.6819L17.0279 24.9699L21.3661 20.6317" stroke="#FF4810" stroke-width="2"/>
</svg>
